<svg width="226" height="100" viewBox="0 0 226 100" fill="none" xmlns="http://www.w3.org/2000/svg">
<g clip-path="url(#clip0_174_2)">
<path d="M200.769 1.14441e-05H25.5661C11.6767 1.14441e-05 0.360399 11.2798 0.33604 25.145C0.112115 58.0462 0.000152588 74.5074 0.000152588 74.5287C0.000152588 88.417 11.3191 99.7172 25.2315 99.7172H155.864C169.775 99.7172 181.094 88.417 181.094 74.5249V73.2655L200.773 72.9583C214.683 72.957 226 61.6568 226 47.7698V25.1898C226 11.3003 214.681 1.14441e-05 200.769 1.14441e-05ZM222.154 47.7698C222.154 59.5398 212.562 69.1173 200.771 69.1186H200.723L177.246 69.4846V74.5262C177.248 86.3 167.654 95.8775 155.864 95.8775H25.2315C13.4395 95.8775 3.8462 86.3 3.8462 74.5287C3.8462 74.5159 3.95816 58.0598 4.18209 25.1603C4.19875 13.4032 13.7882 3.83972 25.5661 3.83972H200.769C212.561 3.83972 222.154 13.4172 222.154 25.1898V47.7698Z" fill="black"/>
<path d="M200.769 3.83967H25.5659C13.7881 3.83967 4.19859 13.4031 4.18193 25.1603C3.958 58.0589 3.84604 74.515 3.84604 74.5287C3.84604 86.2999 13.4394 95.8774 25.2313 95.8774H155.864C167.654 95.8774 177.248 86.2999 177.248 74.5261V69.4846L200.723 69.1185H200.771C212.562 69.1173 222.154 59.5397 222.154 47.7698V25.1897C222.154 13.4172 212.561 3.83967 200.769 3.83967ZM218.308 47.7698C218.308 57.4228 210.441 65.2775 200.771 65.2788H200.698L173.399 65.705L173.401 74.5274C173.401 84.183 165.534 92.0377 155.864 92.0377H25.2313C15.5598 92.0377 7.69208 84.183 7.69208 74.5287C7.69208 74.5197 8.02797 25.1756 8.02797 25.1756C8.03566 15.5265 15.9008 7.67938 25.5659 7.67938H200.769C210.44 7.67938 218.308 15.5341 218.308 25.1897V47.7698Z" fill="#F07C3D"/>
<path d="M26.7827 26.7191C26.5763 26.1112 26.7519 25.4418 27.2263 25.0079C32.7159 19.9894 39.7836 17.3784 47.8552 17.2747C57.6062 17.1506 65.806 22.7284 68.1354 25.1487C68.6405 25.6735 69.0456 26.2801 68.8354 26.9777C68.3341 28.6492 67.188 31.8426 65.0278 34.9912C60.9497 40.9376 55.328 43.953 48.318 43.953C41.3079 43.953 35.5017 40.9734 31.1198 35.0974C28.7083 31.8631 27.3468 28.3817 26.7827 26.7179V26.7191Z" fill="black"/>
<path d="M26.134 64.4838C25.3071 66.1234 24.7636 67.5364 24.4405 68.4707C23.3585 67.2254 22.3739 65.8917 21.5008 64.4838H26.134Z" fill="black"/>
<path d="M26.8007 69.5983C26.6007 70.2063 26.784 70.8705 27.2622 71.2967C32.7364 76.1668 39.9478 79.1438 47.8552 79.1438C55.7627 79.1438 62.9651 76.2372 68.447 71.298C68.9047 70.8859 69.0905 70.2523 68.92 69.6598C68.6495 68.719 68.1444 67.1755 67.3329 65.4194C67.0701 64.8512 66.5034 64.4838 65.8753 64.4838H29.9929C29.3929 64.4838 28.8417 64.8166 28.5699 65.3503C27.6917 67.0718 27.1174 68.6358 26.802 69.5983H26.8007Z" fill="black"/>
<path d="M74.2108 64.4838C73.3326 65.9007 72.3403 67.242 71.2493 68.495C70.9468 67.4993 70.4583 66.0901 69.7212 64.4838H74.2108Z" fill="black"/>
<path d="M31.1198 61.2381C31.9338 60.1464 32.7966 59.1544 33.7069 58.2623V61.9241H30.6249C30.7839 61.6963 30.9493 61.4672 31.1198 61.2381Z" fill="black"/>
<path d="M40.1464 53.9451V61.9241H36.2709V56.1069C37.4926 55.2327 38.7849 54.5121 40.1464 53.9451Z" fill="black"/>
<path d="M46.5872 52.444V61.9242H42.7104V53.0801C43.9526 52.7537 45.2462 52.5412 46.5872 52.444Z" fill="black"/>
<path d="M49.1513 52.3965C50.4974 52.4426 51.7897 52.6039 53.0281 52.879V61.9241H49.1513V52.3965Z" fill="black"/>
<path d="M55.5922 53.6431C56.9613 54.1576 58.2536 54.8322 59.4677 55.6654V61.9241H55.5922V53.6431Z" fill="black"/>
<path d="M65.4149 61.9242H62.0317V57.7671C63.1073 58.8077 64.1072 60.0005 65.0277 61.3431C65.1611 61.5364 65.2893 61.731 65.4149 61.9242Z" fill="black"/>
<path d="M78.8415 48.2088C78.8415 52.764 77.8556 57.0888 76.0865 60.981C75.8262 61.5531 75.2596 61.9243 74.6301 61.9243H69.3148C68.761 61.9243 68.2457 61.6376 67.9559 61.1653C67.7149 60.7711 67.4585 60.3743 67.188 59.9763C65.6829 57.7671 63.9547 55.9036 62.0317 54.4023C62.0138 54.3869 61.9958 54.3728 61.9766 54.3588C58.1344 51.3753 53.5127 49.8292 48.318 49.8292C45.5591 49.8292 42.94 50.2605 40.4952 51.1053C40.3785 51.1449 40.2618 51.1859 40.1464 51.2294C35.8235 52.8024 32.0518 55.686 29.0147 59.7868C28.6609 60.2642 28.3288 60.7416 28.0186 61.2139C27.7263 61.6593 27.225 61.9243 26.6904 61.9243H21.0816C20.4521 61.9243 19.8855 61.5531 19.6252 60.981C17.8548 57.0875 16.8702 52.764 16.8702 48.2088C16.8702 41.4663 19.0304 35.2268 22.6995 30.1443C23.4213 29.1447 24.952 29.297 25.4546 30.422C26.2379 32.1755 27.3917 34.3565 29.0147 36.5489C33.8402 43.0636 40.5157 46.5078 48.318 46.5078C56.1204 46.5078 62.6663 42.9984 67.188 36.3608C68.5931 34.2976 69.5956 32.2446 70.2905 30.5372C70.7622 29.3776 72.3327 29.1984 73.0635 30.216C76.7018 35.2857 78.8415 41.497 78.8415 48.2088Z" fill="black"/>
<path d="M141.759 60.5355C141.745 60.5201 141.631 60.4689 141.607 60.4664C141.273 60.4305 140.859 60.515 140.523 60.4036C140.386 60.3576 140.411 60.3077 140.414 60.172C140.572 59.564 140.727 58.9535 140.881 58.3443C141.142 57.3101 141.42 56.2312 141.757 55.206C141.787 55.1151 141.896 54.7529 141.959 54.7324L147.578 54.7106C147.712 54.7695 147.73 55.1816 147.734 55.3224C147.762 56.2772 147.706 57.2346 147.734 58.1894C147.739 58.3571 147.656 58.5171 147.785 58.6847C147.926 58.8665 148.048 58.512 148.094 58.3955C148.539 57.2986 148.801 56.107 149.23 55.0101C149.243 54.9769 149.416 54.7529 149.435 54.7426L150.538 54.6953C151.352 54.7004 152.149 54.6518 152.966 54.726C155.299 54.9372 156.98 56.5716 157.172 58.9254C157.256 59.9454 157.212 60.9617 157.204 61.9958C157.201 62.4886 157.238 63.094 157.204 63.5791C157.197 63.6981 157.111 63.9733 157.119 64.0514C157.122 64.0898 157.181 64.1448 157.19 64.2011C157.222 64.388 157.172 64.6619 157.426 64.708C157.658 64.7502 157.957 64.6683 158.166 64.6785C158.307 64.6849 158.535 64.8104 158.704 64.7758C158.798 64.9243 158.744 65.1214 158.711 65.2839C158.657 65.545 158.462 65.8701 158.425 66.0775C158.198 67.3407 157.907 68.6501 157.543 69.8852C157.506 70.0093 157.369 70.4522 157.31 70.529C157.243 70.616 157.125 70.6352 157.021 70.6454C156.742 70.6736 156.329 70.6646 156.037 70.6672C154.796 70.6749 153.524 70.6582 152.293 70.6442C152.164 70.6429 151.561 70.6838 151.512 70.6147C151.476 70.5341 151.514 70.4419 151.496 70.3613C151.175 68.9214 151.416 67.1193 151.364 65.6026C151.355 65.3351 151.337 65.2942 151.362 64.9959C151.387 64.7028 151.362 64.4929 151.362 64.2216C151.362 63.181 151.565 61.1972 150.442 60.6545C149.862 60.3742 149.196 60.4881 148.575 60.4612C148.334 60.451 148.133 60.3205 147.906 60.4651C147.641 60.6353 147.724 61.2023 147.716 61.489C147.68 62.7062 147.668 63.9631 147.646 65.1969C147.619 66.7174 147.615 68.2405 147.578 69.7508C147.574 69.9069 147.611 70.4125 147.562 70.511C147.506 70.6262 147.241 70.5648 147.124 70.5789C146.866 70.6096 146.689 70.657 146.414 70.6454C145.347 70.5981 144.184 70.5264 143.133 70.6429C143.052 70.6518 142.946 70.6531 142.864 70.6467C142.788 70.6416 142.388 70.5789 142.342 70.561C142.314 70.5494 142.263 70.488 142.241 70.4598C142.164 70.3639 141.777 69.5498 141.769 69.4449C141.761 69.3399 141.822 69.2337 141.827 69.1364C141.883 67.9384 141.791 66.7097 141.8 65.5002C141.811 64.0309 141.943 62.4758 141.896 61.0154C141.893 60.9502 141.793 60.5739 141.759 60.5355Z" fill="black"/>
<path d="M168.041 37.3795C168.026 37.3642 167.912 37.3117 167.889 37.3091C167.55 37.2733 167.134 37.3578 166.795 37.2452C166.657 37.1991 166.684 37.1479 166.685 37.0122C166.844 36.3979 167 35.7822 167.155 35.1679C167.42 34.1247 167.7 33.0368 168.04 32.0014C168.071 31.9092 168.18 31.5445 168.243 31.5227L173.91 31.5009C174.046 31.5611 174.064 31.9771 174.068 32.1179C174.096 33.0816 174.04 34.0467 174.068 35.0104C174.073 35.1794 173.989 35.3419 174.119 35.5109C174.262 35.6952 174.383 35.3368 174.432 35.2191C174.881 34.112 175.145 32.9101 175.578 31.8043C175.591 31.771 175.766 31.5445 175.785 31.5342L176.896 31.4869C177.717 31.492 178.522 31.4434 179.346 31.5176C181.7 31.7313 183.395 33.3798 183.59 35.7541C183.674 36.7831 183.629 37.8083 183.623 38.8514C183.619 39.3493 183.656 39.9585 183.623 40.4487C183.615 40.5691 183.529 40.8455 183.537 40.9249C183.541 40.9633 183.6 41.0196 183.61 41.0759C183.643 41.2653 183.592 41.5405 183.847 41.5866C184.082 41.6288 184.382 41.5469 184.593 41.5559C184.736 41.5623 184.965 41.689 185.136 41.6544C185.229 41.8042 185.175 42.0025 185.142 42.1677C185.088 42.4313 184.891 42.759 184.854 42.9676C184.626 44.2424 184.332 45.5632 183.964 46.8086C183.927 46.934 183.788 47.3807 183.728 47.4575C183.66 47.5445 183.542 47.565 183.437 47.5752C183.155 47.6034 182.74 47.5957 182.444 47.597C181.191 47.6047 179.909 47.588 178.668 47.574C178.537 47.5727 177.93 47.6149 177.881 47.5432C177.844 47.4626 177.882 47.3692 177.864 47.2873C177.54 45.8346 177.783 44.0171 177.731 42.4864C177.722 42.2163 177.704 42.1741 177.728 41.8746C177.753 41.5751 177.728 41.3677 177.728 41.0938C177.728 40.0443 177.933 38.0425 176.8 37.496C176.215 37.2132 175.544 37.3271 174.917 37.3002C174.673 37.2899 174.471 37.1581 174.242 37.304C173.975 37.4755 174.059 38.0477 174.05 38.3369C174.014 39.5643 174.001 40.8327 173.978 42.0768C173.951 43.6101 173.946 45.146 173.91 46.6704C173.907 46.8278 173.944 47.3372 173.895 47.437C173.839 47.5522 173.571 47.4908 173.453 47.5049C173.192 47.5356 173.014 47.5842 172.737 47.5714C171.662 47.524 170.489 47.4524 169.428 47.5688C169.346 47.5778 169.24 47.5791 169.157 47.5727C169.08 47.5676 168.676 47.5049 168.63 47.4857C168.602 47.4741 168.55 47.4127 168.527 47.3833C168.45 47.286 168.059 46.4643 168.052 46.3593C168.044 46.2544 168.105 46.1456 168.109 46.0483C168.167 44.8388 168.073 43.5999 168.082 42.3814C168.094 40.8993 168.227 39.3301 168.18 37.8569C168.177 37.7917 168.077 37.4115 168.041 37.3731V37.3795Z" fill="black"/>
<path d="M196.464 47.506L196.321 43.761C196.192 43.7341 196.18 43.793 196.129 43.8864C195.589 44.8528 195.407 46.1877 195.014 47.2257C194.97 47.3409 194.833 47.5278 194.714 47.5623C194.485 47.6289 193.539 47.593 193.243 47.5764C188.838 47.3191 185.643 44.6493 185.422 40.121C185.178 35.1357 188.713 31.0721 193.87 31.5456C194.659 31.6186 195.407 31.9539 196.182 32.0678C196.614 30.9223 196.184 30.4475 194.984 30.6113L194.932 30.3118L196.166 25.411C196.211 25.3214 196.269 25.2216 196.371 25.1909C196.474 25.1602 197.048 25.1141 197.211 25.1039C198.164 25.045 199.225 25.1589 200.178 25.1807C200.69 25.1922 201.215 25.1999 201.722 25.1205C201.784 25.141 201.875 25.1653 201.916 25.2114C202.057 25.3688 201.971 26.8445 201.983 27.1939C202.062 29.7755 202.054 32.3878 202.06 34.9617C202.063 36.8457 201.856 39.3901 202.054 41.1846C202.156 42.101 203.031 41.4956 203.619 41.8245L202.853 44.7337C202.802 45.247 202.671 45.7564 202.533 46.2504C202.472 46.4667 202.213 47.5073 202.022 47.5073H196.466L196.464 47.506ZM192.311 41.3343C193.076 41.9883 194.292 41.8591 195.228 41.8501C195.575 41.8463 195.967 41.9973 196.284 41.7093C196.506 41.2678 196.332 40.8326 196.319 40.4077C196.285 39.2877 196.426 38.507 195.51 37.6827C195.362 37.5509 194.752 37.0889 194.602 37.0287C194.523 36.9967 193.55 37.0428 193.402 37.0658C193.243 37.0902 192.425 37.3692 192.305 37.4498C192.26 37.4792 191.737 38.2344 191.693 38.3278C191.182 39.4029 191.415 40.5689 192.312 41.3356L192.311 41.3343Z" fill="black"/>
<path d="M95.5229 24.3283C94.0293 23.2954 92.405 22.8372 90.823 22.8411L90.6333 22.8436L89.6974 22.859L88.3769 26.389C88.341 26.4875 88.1949 26.4632 88.1936 26.357L88.1398 22.9895V22.8846H88.0398L82.4066 22.8859C82.2181 22.8859 81.9656 23.9085 81.9053 24.121C81.7694 24.6061 81.6399 25.1065 81.5899 25.6108L80.8387 28.4688C81.4143 28.7913 82.2745 28.1962 82.3745 29.096C82.5707 30.8597 82.3656 33.358 82.3694 35.2088C82.3732 37.7366 82.3668 43.0047 82.445 45.5401C82.4553 45.8844 82.372 47.3333 82.5104 47.4882C82.5502 47.5342 82.6399 47.5585 82.7002 47.5777C83.1989 47.501 83.713 47.5073 84.2181 47.5189C85.1527 47.5406 86.1949 47.652 87.1308 47.5944C87.2911 47.5841 87.8539 47.5368 87.9551 47.5086C88.0551 47.4792 88.1128 47.3806 88.1564 47.2923C88.1564 47.2923 88.1423 43.6484 88.141 38.7106C90.3102 39.4491 92.7781 39.3339 94.9267 38.0757C99.9317 35.1448 100.319 27.6458 95.5254 24.327L95.5229 24.3283ZM92.8499 32.5056C92.3999 33.1238 91.605 33.4681 90.8204 33.4847H90.8217C90.8217 33.4847 90.7999 33.486 90.7602 33.486C90.3564 33.486 89.9551 33.3977 89.6089 33.2134C88.7269 32.745 88.2962 31.8785 88.2962 31.0145V28.5264C88.3513 28.5162 90.6705 28.5264 90.8153 28.5264H90.823C92.7165 28.5315 94.1486 30.7227 92.8512 32.5056H92.8499Z" fill="black"/>
<path d="M111.815 54.7796L111.957 58.5106C112.087 58.5362 112.098 58.4786 112.149 58.3864C112.689 57.4239 112.871 56.0941 113.265 55.0599C113.308 54.946 113.446 54.7592 113.565 54.7246C113.793 54.6581 114.74 54.6939 115.037 54.7105C119.443 54.9665 122.638 57.6274 122.859 62.1365C123.103 67.1025 119.567 71.1509 114.41 70.6799C113.621 70.6082 112.872 70.2729 112.098 70.1602C111.666 71.3019 112.096 71.7742 113.297 71.6116L113.349 71.9099L112.115 76.7927C112.07 76.881 112.012 76.9821 111.91 77.0116C111.807 77.041 111.233 77.0883 111.07 77.0986C110.116 77.1562 109.056 77.0436 108.103 77.0218C107.591 77.0103 107.066 77.0026 106.559 77.0807C106.497 77.0602 106.406 77.0359 106.365 76.9898C106.224 76.8336 106.31 75.363 106.298 75.0149C106.219 72.4423 106.226 69.8415 106.221 67.2779C106.218 65.4016 106.426 62.8661 106.227 61.0793C106.124 60.1668 105.25 60.7696 104.662 60.4419L105.429 57.5442C105.48 57.0323 105.611 56.5254 105.751 56.0339C105.811 55.8189 106.07 54.7822 106.261 54.7822H111.819L111.815 54.7796ZM115.967 60.927C115.202 60.2755 113.987 60.4035 113.051 60.4138C112.703 60.4176 112.31 60.2679 111.994 60.5533C111.773 60.9923 111.947 61.4262 111.96 61.8498C111.993 62.9659 111.852 63.7428 112.769 64.5645C112.916 64.6963 113.526 65.1558 113.676 65.216C113.756 65.248 114.729 65.2019 114.876 65.1789C115.035 65.1545 115.853 64.8768 115.974 64.7962C116.019 64.7667 116.542 64.0141 116.585 63.922C117.097 62.852 116.863 61.6886 115.966 60.9257L115.967 60.927Z" fill="black"/>
<path d="M110.721 32.8024C115.515 36.1199 115.128 43.6201 110.123 46.5498C105.32 49.3618 98.9164 46.4666 97.8267 41.0719C96.3819 33.921 104.651 28.6005 110.721 32.8024ZM108.049 40.9784C109.592 38.8602 107.28 36.166 104.921 37.245C103.079 38.0871 103.002 40.7276 104.809 41.6862C105.843 42.2353 107.357 41.9307 108.049 40.9784Z" fill="black"/>
<path d="M99.6561 51.6965C91.8384 46.2851 81.1887 53.1364 83.0502 62.3466C84.454 69.2952 92.7012 73.0248 98.8869 69.4014C105.333 65.627 105.832 55.9701 99.6574 51.6965H99.6561ZM93.4255 65.2968C90.6589 65.2968 88.4167 63.0582 88.4167 60.2962C88.4167 57.5342 90.6589 55.2956 93.4255 55.2956C96.1921 55.2956 98.4344 57.5342 98.4344 60.2962C98.4344 63.0582 96.1921 65.2968 93.4255 65.2968Z" fill="black"/>
<path d="M142.525 22.8654C143.539 22.8219 144.788 22.9153 145.824 22.9345C145.998 22.9384 146.552 22.8948 146.657 22.9691C146.837 23.0958 146.724 23.5796 146.728 23.7729C146.814 27.2439 146.791 30.7355 146.789 34.2117C146.789 35.9588 146.773 37.7046 146.789 39.4478C146.792 39.7435 146.744 40.9069 146.851 41.0823C146.962 41.2666 147.985 41.1578 148.221 41.209C148.57 41.2858 148.311 41.7568 148.259 41.9782C147.88 43.587 147.473 45.3405 147.018 46.9212C146.942 47.1861 146.878 47.5304 146.57 47.5778C146.21 47.6328 145.621 47.5752 145.23 47.5778C144.074 47.5867 142.911 47.6008 141.764 47.5778C141.516 47.5726 140.692 47.6802 140.564 47.4766C140.483 47.3487 140.525 47.0197 140.52 46.8508C140.419 43.994 140.52 41.0823 140.52 38.2281C140.52 35.5953 140.515 32.928 140.439 30.276C140.433 30.0661 140.511 29.7167 140.364 29.5631C140.254 29.4479 139.552 29.3865 139.356 29.3852C139.081 29.3827 138.802 29.5772 138.823 29.1344C138.831 28.968 138.988 28.3216 139.04 28.1271C139.111 27.8557 139.265 27.5626 139.328 27.3118C139.377 27.1211 139.378 26.8139 139.424 26.6206C139.71 25.4546 140.036 24.2989 140.304 23.1278C140.402 22.9742 140.565 22.946 140.737 22.9307C141.277 22.882 141.96 22.8872 142.523 22.8628L142.525 22.8654Z" fill="black"/>
<path d="M130.545 64.7835L130.537 64.7914C130.537 64.7914 130.536 64.7822 130.536 64.777C130.54 64.7796 130.542 64.7822 130.545 64.7835Z" fill="black"/>
<path d="M139.355 61.9945C139.051 60.0286 138.237 57.9692 136.685 56.6369C133.499 53.903 128.512 54.2626 125.746 57.4048C124.05 59.3336 123.498 62.1801 124.134 64.6798C124.407 65.7498 124.894 66.757 125.607 67.5992C128.395 70.8962 132.668 70.9897 136.674 70.4534L137.465 70.2537C137.487 70.0899 137.665 69.8582 137.7 69.729C137.736 69.5843 137.717 69.3719 137.759 69.2042C137.953 68.4337 138.2 67.6594 138.4 66.8914C138.495 66.5267 138.663 65.9993 138.713 65.6486C138.758 65.3351 138.583 65.344 138.317 65.3709C137.845 65.4208 137.313 65.5693 136.828 65.6333C134.937 65.8854 132.123 66.0518 130.542 64.786L130.535 64.7937C130.535 64.7937 130.533 64.7847 130.533 64.7796C130.527 64.7745 130.519 64.7693 130.512 64.7617C130.317 64.6017 129.898 64.2369 130.377 64.1665C130.385 64.1652 130.395 64.164 130.404 64.1627C131.608 63.9873 132.945 64.1806 134.146 64.082L136.599 64.0859C137.404 64.0257 138.3 64.1524 139.092 64.0859C139.319 64.0654 139.514 64.0193 139.538 63.7544C139.581 63.2975 139.426 62.4604 139.354 61.9945H139.355ZM133.205 60.6916C132.673 60.7364 132.113 60.6954 131.581 60.6993C130.996 60.7044 130.38 60.7709 129.791 60.7031C129.24 60.6391 129.722 59.8596 129.912 59.6177C130.287 59.1416 130.908 58.8344 131.516 58.8101C132.463 58.773 133.623 59.2901 133.78 60.3358C133.833 60.6993 133.48 60.6685 133.207 60.6903L133.205 60.6916Z" fill="black"/>
<path d="M159.49 43.8301C159.439 43.7661 159.334 43.9888 159.321 44.0182C158.883 44.9884 158.647 46.299 158.266 47.3242C158.162 47.6032 158.079 47.6506 157.778 47.6659C154.362 47.8502 151.06 46.5038 149.623 43.2541C148.246 40.1414 148.819 35.7833 151.417 33.459C153.535 31.566 156.216 31.0515 158.935 32.0012C159.09 32.055 159.467 32.2661 159.584 32.2585C159.91 32.238 159.554 31.79 159.894 31.6249C160.089 31.5302 160.618 31.5865 160.866 31.5801C162.081 31.5494 163.377 31.4969 164.593 31.5392C164.729 31.5443 165.141 31.5596 165.241 31.6057C165.354 31.6582 165.356 31.8579 165.364 31.9718C165.461 33.2824 165.382 34.936 165.356 36.2569C165.339 37.0466 165.29 37.8004 165.284 38.5863C165.277 39.4566 165.317 40.3078 165.359 41.1832C165.366 41.3215 165.261 41.4008 165.4 41.5557C165.48 41.644 165.786 41.6888 165.909 41.6901C166.186 41.6901 166.784 41.4776 166.795 41.9333C166.705 42.2123 166.664 42.5015 166.595 42.7857C166.357 43.7597 166.072 44.7222 165.825 45.7C165.706 46.1723 165.612 46.9722 165.409 47.3895C165.329 47.5546 165.176 47.5751 165.007 47.5891C164.334 47.6455 163.644 47.5904 162.975 47.5866C161.903 47.5789 160.83 47.6826 159.754 47.6071C159.46 47.3703 159.61 47.1655 159.604 46.8929C159.588 45.9893 159.544 45.0793 159.471 44.1884C159.466 44.1206 159.522 43.8697 159.49 43.8301ZM158.939 37.8798C158.879 37.8043 158.742 37.6008 158.683 37.5534C158.445 37.3653 157.712 37.1323 157.402 37.1042C155.94 36.9698 154.792 38.2599 154.899 39.6768C155.02 41.2651 156.162 41.836 157.602 41.9013C158.074 41.923 158.738 41.9153 159.204 41.8334C159.68 41.7502 159.476 41.4891 159.488 41.1423C159.525 39.9968 159.693 38.8256 158.939 37.8798Z" fill="black"/>
<path d="M126.308 32.3814C126.043 33.7099 125.613 35.1114 125.278 36.4323C125.209 36.7049 125.005 37.8658 124.863 38.0014C124.759 38.1013 124.299 38.0398 124.127 38.0552C123.646 38.1 122.979 38.3624 122.63 38.6926C122.561 38.7566 122.079 39.3236 122.064 39.3645C122.052 39.4016 122.04 39.44 122.029 39.4784C121.656 40.7327 121.799 42.3608 121.799 43.665C121.798 44.6057 121.844 45.5887 121.826 46.532C121.822 46.6945 121.808 47.4394 121.759 47.5085C121.712 47.5751 121.602 47.6045 121.522 47.6135C120.77 47.7005 119.706 47.6045 118.912 47.6109C118.498 47.6135 118.094 47.6096 117.674 47.6109C117.351 47.6109 116.917 47.6724 116.606 47.657C116.066 47.6301 116.257 47.1898 116.242 46.8238C116.201 45.8319 116.19 44.8118 116.175 43.8288C116.165 43.258 116.19 42.6116 116.161 42.0856C116.106 41.0898 116.111 40.0877 116.071 39.1021C116.061 38.8385 116.11 38.498 116.071 38.2497C115.957 37.5112 114.865 38.1985 114.634 37.6443C114.731 37.0645 114.869 36.4899 115.036 35.9318C115.238 34.9053 115.489 33.8584 115.751 32.8473C115.817 32.5823 115.874 32.1587 116.179 32.1228C116.902 32.0396 117.899 32.1177 118.652 32.1087C119.577 32.0972 120.503 32.046 121.429 32.0908C121.664 32.2163 121.539 32.4441 121.548 32.6118C121.557 32.773 121.57 33.0136 121.59 33.1672C121.612 33.3272 121.653 33.4143 121.704 33.4539C121.875 33.5794 122.173 33.1826 122.359 33.0456C123.427 32.2547 124.693 31.7414 126.046 31.799C126.44 31.8157 126.367 32.1049 126.311 32.3826L126.308 32.3814Z" fill="black"/>
<path d="M138.801 41.5418C138.883 41.8234 138.726 42.0807 138.668 42.3482C138.391 43.6063 138.056 44.8811 137.729 46.1354C137.663 46.3914 137.535 47.3667 137.364 47.5049C137.201 47.6367 136.933 47.5548 136.768 47.5561C135.468 47.565 134.81 47.51 133.514 47.5049L133.518 47.4972C133.33 47.4895 133.14 47.4793 132.949 47.4614C130.495 47.2374 128.73 45.521 128.526 43.047C128.44 41.9744 128.486 40.9057 128.493 39.8191C128.495 39.3545 128.466 38.7926 128.484 38.3152V32.2676C128.491 32.1512 128.5 32.0219 128.484 31.9118C128.472 31.8363 128.448 31.771 128.404 31.725C128.294 31.6111 127.599 31.5496 127.407 31.5483C127.134 31.5471 126.858 31.7378 126.878 31.3C126.886 31.1362 127.043 30.495 127.093 30.303C127.164 30.0329 127.316 29.7437 127.378 29.4954C127.427 29.3072 127.428 29.0013 127.475 28.8119C127.759 27.6562 128.081 26.5106 128.346 25.3523C128.444 25.2 128.605 25.1731 128.775 25.1565C129.309 25.1079 129.986 25.1143 130.544 25.0899C131.549 25.0452 132.785 25.1386 133.812 25.1565C133.985 25.1603 134.532 25.1181 134.636 25.1923C134.813 25.3178 134.701 25.7977 134.706 25.9872C134.749 27.7048 134.764 29.4275 134.768 31.1503H138.529C138.722 31.1503 138.863 31.3333 138.815 31.5189L137.461 36.7563C137.395 37.0186 137.159 37.2055 136.887 37.2093L134.631 37.2375C134.63 37.2106 134.63 37.185 134.628 37.1594V37.2375L134.623 38.3152C134.612 39.4146 134.683 40.7841 135.605 41.2282C136.214 41.5226 136.914 41.4036 137.565 41.4317C137.578 41.4317 137.592 41.433 137.605 41.4343C138.013 41.4074 138.7 41.3857 138.801 41.5393V41.5418Z" fill="black"/>
<path d="M128.485 32.2688V32.654C128.483 32.5798 128.482 32.5056 128.48 32.4313C128.478 32.3827 128.481 32.3277 128.485 32.2688Z" fill="black"/>
<path d="M128.485 32.269V31.9132C128.501 32.0233 128.492 32.1513 128.485 32.269Z" fill="black"/>
<path d="M134.637 37.4795C134.637 37.7201 134.625 38.0068 134.623 38.3166L134.628 37.2389V37.1608C134.629 37.1864 134.629 37.212 134.63 37.2389C134.633 37.3157 134.636 37.3951 134.636 37.4782L134.637 37.4795Z" fill="black"/>
<path d="M128.485 32.2689V31.9131C128.501 32.0232 128.492 32.1512 128.485 32.2689Z" fill="black"/>
<path d="M134.631 37.2388H134.628V37.1607C134.629 37.1863 134.629 37.2119 134.631 37.2388Z" fill="black"/>
</g>
<defs>
<clipPath id="clip0_174_2">
<rect width="226" height="99.7172" fill="white"/>
</clipPath>
</defs>
</svg>
